<svg width="270" height="120" fill="none" xmlns="http://www.w3.org/2000/svg"><rect width="270" height="120" rx="4" fill="#F5F4FA"/><g clip-path="url(#clip0)"><path d="M168.461 58.471c-.003-18.49-14.995-33.475-33.486-33.471-18.489.004-33.475 14.996-33.471 33.486A33.478 33.478 0 00124.8 90.37c.132.042.27.063.408.063.264 0 .522-.071.749-.205.296-.175.516-.453.62-.78l8.455-26.797a4.183 4.183 0 004.162-4.206 4.184 4.184 0 00-4.206-4.164 4.131 4.131 0 00-1.794.42L122.025 43.53a1.395 1.395 0 00-1.972 1.973l11.163 11.176a4.104 4.104 0 001.174 5.051l-8.056 25.535c-15.92-5.865-24.072-23.525-18.208-39.445 5.865-15.92 23.524-24.072 39.445-18.207 15.92 5.864 24.072 23.524 18.207 39.444A30.72 30.72 0 01147.455 86.5l-.871-4.1a1.394 1.394 0 00-2.293-.752l-8.393 7.494a1.395 1.395 0 00.505 2.372l10.716 3.42a1.394 1.394 0 001.791-1.619l-.855-4.022a33.37 33.37 0 0020.406-30.82zm-33.478-1.394a1.395 1.395 0 110 2.79 1.395 1.395 0 010-2.79zm4.594 32.515l4.778-4.262 1.319 6.213-6.097-1.951z" fill="#212121"/><path d="M133.588 31.967v2.79a1.395 1.395 0 102.79 0v-2.79a1.395 1.395 0 00-2.79 0zM108.479 57.077a1.395 1.395 0 100 2.79h2.79a1.395 1.395 0 000-2.79h-2.79zM161.487 59.867a1.395 1.395 0 000-2.79h-2.79a1.395 1.395 0 000 2.79h2.79z" fill="#2196F3"/></g><defs><clipPath id="clip0"><path fill="#fff" transform="translate(100 25)" d="M0 0h70v70H0z"/></clipPath></defs></svg>