<svg width="270" height="120" fill="none" xmlns="http://www.w3.org/2000/svg"><rect width="270" height="120" rx="4" fill="#F5F4FA"/><path d="M167.316 73.338l-18.469-18.604 2.05-10.097a4.654 4.654 0 001.659.319h.014a4.723 4.723 0 10-4.394-3.14l-10.85 1.325-17.698-17.791a1.17 1.17 0 00-.824-.35c-.306.002-.6.123-.817.34l-3.308 3.29a1.166 1.166 0 000 1.65l1.78 1.805c-6.897 12.683-4.657 28.39 5.511 38.638.094.09.202.161.32.213a6.677 6.677 0 00-.114 1.197v13.534h-14a5.841 5.841 0 00-5.834 5.833v2.333c0 .645.523 1.167 1.167 1.167h53.667c.644 0 1.166-.522 1.166-1.167V91.5a5.84 5.84 0 00-5.833-5.833h-14v-5.998c2.193.46 4.428.694 6.669.7a32.486 32.486 0 0015.4-3.901l1.789 1.8c.217.221.514.347.824.35a1.17 1.17 0 00.817-.34l3.308-3.29a1.166 1.166 0 000-1.65zm-16.391-34.703a2.332 2.332 0 111.644 3.988h-.007a2.334 2.334 0 01-1.633-3.988h-.004zm-2.747 7.666l-1.309 6.444-2.571-2.587 3.88-3.857zm-1.325-1.973l-4.2 4.176-3.249-3.267 7.449-.909zM152.509 88a3.5 3.5 0 013.5 3.5v1.167h-51.333V91.5a3.5 3.5 0 013.5-3.5h44.333zm-16.333-4.667v2.334h-11.667v-2.334h11.667zM124.509 81v-8.867c0-2.83 2.617-5.133 5.833-5.133 3.217 0 5.834 2.303 5.834 5.133V81h-11.667zm14-3.71v-5.157c0-4.117-3.663-7.466-8.167-7.466a8.313 8.313 0 00-7.177 3.907 30.339 30.339 0 01-4.984-34.753l40.691 40.925a30.232 30.232 0 01-20.363 2.544zm24.695-1.496l-1.644-1.653-42.768-43.025-1.651-1.655 1.651-1.645 17.358 17.456c.008 0 .013.015.021.021l28.688 28.856-1.655 1.645z" fill="#212121"/><path d="M130.353 69.333h-.011a3.5 3.5 0 10-.01 7h.01a3.5 3.5 0 00.011-7zm.816 4.328a1.165 1.165 0 11-1.643-1.655c.217-.216.51-.338.816-.34a1.167 1.167 0 01.817 1.995h.01z" fill="#2196F3"/></svg>