<svg width="270" height="120" fill="none" xmlns="http://www.w3.org/2000/svg"><rect width="270" height="120" rx="4" fill="#F5F4FA"/><g clip-path="url(#clip0)"><path d="M132.65 57.735h2.332V68.23h-2.332V57.735zM141.978 62.4h2.332v5.83h-2.332V62.4zM123.321 65.897h2.332v2.333h-2.332v-2.333zM116.325 64.731h2.332v3.499h-2.332V64.73z" fill="#2196F3"/><path d="M103.498 86.886h55.971a3.498 3.498 0 003.498-3.498v-4.664a3.498 3.498 0 00-3.498-3.498h-1.166v-29.08l6.623-6.273a3.518 3.518 0 10-1.633-1.67l-4.99 4.731v-2.69a3.499 3.499 0 00-3.498-3.498h-46.643a3.499 3.499 0 00-3.498 3.498v34.982h-1.166A3.498 3.498 0 00100 78.724v4.664a3.498 3.498 0 003.498 3.498zm62.967-51.306a1.166 1.166 0 110 2.332 1.166 1.166 0 010-2.332zm-59.469 4.664c0-.644.522-1.166 1.166-1.166h46.643c.644 0 1.166.522 1.166 1.166v4.897l-2.332 2.216v-4.78c0-.645-.523-1.167-1.166-1.167h-41.978c-.644 0-1.167.522-1.167 1.166v29.152c0 .644.523 1.166 1.167 1.166h41.978c.643 0 1.166-.522 1.166-1.166V50.565l2.332-2.21v26.87h-48.975v-34.98zm10.495 15.159a3.498 3.498 0 102.422 6.012l4.053 2.034a1.166 1.166 0 001.392-.268l8.616-9.694 8.47 6.347c.455.34 1.089.304 1.501-.086l7.361-6.973v17.787h-39.645v-26.82h39.645v5.82l-8.25 7.813-8.541-6.403a1.167 1.167 0 00-1.571.157l-8.734 9.828-3.265-1.633a3.34 3.34 0 00.044-.423 3.498 3.498 0 00-3.498-3.498zm1.166 3.498a1.166 1.166 0 11-2.332 0 1.166 1.166 0 012.332 0zm6.996 18.657h11.661v1.166c0 .644-.522 1.166-1.166 1.166h-9.329a1.166 1.166 0 01-1.166-1.166v-1.166zm-23.321 1.166c0-.644.522-1.166 1.166-1.166h19.823v1.166a3.498 3.498 0 003.498 3.498h9.329a3.498 3.498 0 003.498-3.498v-1.166h19.823c.644 0 1.166.522 1.166 1.166v4.664c0 .644-.522 1.166-1.166 1.166h-55.971a1.166 1.166 0 01-1.166-1.166v-4.664z" fill="#212121"/></g><defs><clipPath id="clip0"><path fill="#fff" transform="translate(100 25)" d="M0 0h70v70H0z"/></clipPath></defs></svg>